# xmcd
#
# Track frame offsets:
#	150
#	15528
#	35370
#	50674
#	63717
#	77963
#	100243
#	113104
#	130202
#	149268
#	168473
#	179937
#	199435
#	215007
#
# Disc length: 3033 seconds
#
# Revision: 1
# Processed by: cddbd v1.5.2PL0 Copyright (c) Steve Scherf et al.
# Submitted via: audiograbber 1.83.01
#
DISCID=db0bd70e
DTITLE=J.B. Jacobs - Gloryland Records @1
DYEAR=1900
DGENRE=Gospel
TTITLE0=Come Spring
TTITLE1=He Gave Love
TTITLE2=He Never Stopped Loving Me
TTITLE3=I Believe In A Hill Called Mt. Calvary
TTITLE4=In The Garden
TTITLE5=Wayfaring Stranger
TTITLE6=Take Up Thy Cross
TTITLE7=Lead Me Home
TTITLE8=The Great Love Story
TTITLE9=Sweet Beulah Land
TTITLE10=A Little Spot In Heaven
TTITLE11=Look For Me
TTITLE12=Standing Somewhere In The Shadows
TTITLE13=Wings Of A Dove
EXTD=
EXTT0=
EXTT1=
EXTT2=
EXTT3=
EXTT4=
EXTT5=
EXTT6=
EXTT7=
EXTT8=
EXTT9=
EXTT10=
EXTT11=
EXTT12=
EXTT13=
PLAYORDER=
